<?xml version="1.0" standalone="no"?>
 <!DOCTYPE svg PUBLIC "-//W3C//DTD SVG 1.1//EN" 
 "http://www.w3.org/Graphics/SVG/1.1/DTD/svg11.dtd"> 
<svg
  xmlns:svg="http://www.w3.org/2000/svg"
  xmlns="http://www.w3.org/2000/svg"
  xmlns:xlink="http://www.w3.org/1999/xlink"
  version="1.1"
  width="9.999980cm" height="8.001000cm" viewBox="0 0 39370 31500">
<title>SVG Picture created as Schematic.svg date 2022/07/27 15:42:22 </title>
  <desc>Picture generated by Eeschema-SVG </desc>
<g style="fill:#000000; fill-opacity:1.000000;stroke:#000000; stroke-opacity:1.000000;
stroke-linecap:round; stroke-linejoin:round;"
 transform="translate(0 0) scale(1 1)">
</g>
<g style="fill:#F5F4EF; fill-opacity:0.0; 
stroke:#F5F4EF; stroke-width:0.000000; stroke-opacity:1; 
stroke-linecap:round; stroke-linejoin:round;">
</g>
<g style="fill:#F5F4EF; fill-opacity:1.0; 
stroke:#F5F4EF; stroke-width:0.039370; stroke-opacity:1; 
stroke-linecap:round; stroke-linejoin:round;">
<rect x="0.000000" y="0.000000" width="39370.000000" height="31500.000000" rx="0.000000" />
</g>
<g style="fill:#F5F4EF; fill-opacity:1.0; 
stroke:#F5F4EF; stroke-width:60.000000; stroke-opacity:1; 
stroke-linecap:round; stroke-linejoin:round;">
<g >
</g>
<g style="fill:#840000; fill-opacity:1.0; 
stroke:#840000; stroke-width:60.000000; stroke-opacity:1; 
stroke-linecap:round; stroke-linejoin:round;">
</g>
<g style="fill:#840000; fill-opacity:0.0; 
stroke:#840000; stroke-width:60.000000; stroke-opacity:1; 
stroke-linecap:round; stroke-linejoin:round;">
<path style="fill:#840000; fill-opacity:0.0; 
stroke:#840000; stroke-width:60.000000; stroke-opacity:1; 
stroke-linecap:round; stroke-linejoin:round;fill:none"
d="M 13200.000000,3500.000000
13500.000000,3000.000000
" /> 
<path style="fill:#840000; fill-opacity:0.0; 
stroke:#840000; stroke-width:60.000000; stroke-opacity:1; 
stroke-linecap:round; stroke-linejoin:round;fill:none"
d="M 13500.000000,4000.000000
13500.000000,3000.000000
" /> 
<path style="fill:#840000; fill-opacity:0.0; 
stroke:#840000; stroke-width:60.000000; stroke-opacity:1; 
stroke-linecap:round; stroke-linejoin:round;fill:none"
d="M 13500.000000,3000.000000
13800.000000,3500.000000
" /> 
</g>
<g style="fill:#006464; fill-opacity:0.0; 
stroke:#006464; stroke-width:60.000000; stroke-opacity:1; 
stroke-linecap:round; stroke-linejoin:round;">
<text x="13500.000000" y="2249.960630"
textLength="1612.007874" font-size="666.653543" lengthAdjust="spacingAndGlyphs"
text-anchor="middle" opacity="0">+5V</text>
<g class="stroked-text"><desc>+5V</desc>
<path d="M12857 2035
L13238 2035
" />
<path d="M13047 2226
L13047 1845
" />
<path d="M13714 1726
L13476 1726
L13452 1964
L13476 1940
L13523 1916
L13642 1916
L13690 1940
L13714 1964
L13738 2011
L13738 2130
L13714 2178
L13690 2202
L13642 2226
L13523 2226
L13476 2202
L13452 2178
" />
<path d="M13880 1726
L14047 2226
L14214 1726
" />
</g></g>
</g>
<g style="fill:#006464; fill-opacity:0.0; 
stroke:#006464; stroke-width:60.000000; stroke-opacity:1; 
stroke-linecap:round; stroke-linejoin:round;">
<g >
</g>
<g style="fill:#840000; fill-opacity:0.0; 
stroke:#840000; stroke-width:60.000000; stroke-opacity:1; 
stroke-linecap:round; stroke-linejoin:round;">
<rect x="7500.000000" y="9500.000000" width="12000.000000" height="11000.000000" rx="0.000000" />
<path d="M13500 20500
L13500 23500
" />
</g>
<g style="fill:#006464; fill-opacity:0.0; 
stroke:#006464; stroke-width:60.000000; stroke-opacity:1; 
stroke-linecap:round; stroke-linejoin:round;">
<g transform="rotate(-90.000000 13500.000000 20100.000000)">
<text x="13500.000000" y="20350.000000"
textLength="1583.818898" font-size="666.653543" lengthAdjust="spacingAndGlyphs"
text-anchor="start" opacity="0">GND</text>
</g>
<g class="stroked-text"><desc>GND</desc>
<path d="M13250 19689
L13226 19736
L13226 19808
L13250 19879
L13297 19927
L13345 19950
L13440 19974
L13511 19974
L13607 19950
L13654 19927
L13702 19879
L13726 19808
L13726 19760
L13702 19689
L13678 19665
L13511 19665
L13511 19760
" />
<path d="M13726 19450
L13226 19450
L13726 19165
L13226 19165
" />
<path d="M13726 18927
L13226 18927
L13226 18808
L13250 18736
L13297 18689
L13345 18665
L13440 18641
L13511 18641
L13607 18665
L13654 18689
L13702 18736
L13726 18808
L13726 18927
" />
</g></g>
<g style="fill:#A90000; fill-opacity:0.0; 
stroke:#A90000; stroke-width:60.000000; stroke-opacity:1; 
stroke-linecap:round; stroke-linejoin:round;">
<g transform="rotate(-90.000000 13400.000000 22000.000000)">
<text x="13400.000000" y="22000.000000"
textLength="536.181102" font-size="666.653543" lengthAdjust="spacingAndGlyphs"
text-anchor="middle" opacity="0">1</text>
</g>
<g class="stroked-text"><desc>1</desc>
<path d="M13376 21857
L13376 22142
" />
<path d="M13376 22000
L12876 22000
L12947 22047
L12995 22095
L13019 22142
" />
</g></g>
<g style="fill:#840000; fill-opacity:0.0; 
stroke:#840000; stroke-width:60.000000; stroke-opacity:1; 
stroke-linecap:round; stroke-linejoin:round;">
<path d="M19500 16500
L22500 16500
" />
</g>
<g style="fill:#006464; fill-opacity:0.0; 
stroke:#006464; stroke-width:60.000000; stroke-opacity:1; 
stroke-linecap:round; stroke-linejoin:round;">
<text x="19100.000000" y="16750.000000"
textLength="4274.291339" font-size="666.653543" lengthAdjust="spacingAndGlyphs"
text-anchor="end" opacity="0">GPIO12/D6</text>
<g class="stroked-text"><desc>GPIO12/D6</desc>
<path d="M15236 16250
L15189 16226
L15117 16226
L15046 16250
L14998 16297
L14974 16345
L14950 16440
L14950 16511
L14974 16607
L14998 16654
L15046 16702
L15117 16726
L15165 16726
L15236 16702
L15260 16678
L15260 16511
L15165 16511
" />
<path d="M15474 16726
L15474 16226
L15665 16226
L15712 16250
L15736 16273
L15760 16321
L15760 16392
L15736 16440
L15712 16464
L15665 16488
L15474 16488
" />
<path d="M15974 16726
L15974 16226
" />
<path d="M16308 16226
L16403 16226
L16450 16250
L16498 16297
L16522 16392
L16522 16559
L16498 16654
L16450 16702
L16403 16726
L16308 16726
L16260 16702
L16212 16654
L16189 16559
L16189 16392
L16212 16297
L16260 16250
L16308 16226
" />
<path d="M16998 16726
L16712 16726
" />
<path d="M16855 16726
L16855 16226
L16808 16297
L16760 16345
L16712 16369
" />
<path d="M17189 16273
L17212 16250
L17260 16226
L17379 16226
L17427 16250
L17450 16273
L17474 16321
L17474 16369
L17450 16440
L17165 16726
L17474 16726
" />
<path d="M18046 16202
L17617 16845
" />
<path d="M18212 16726
L18212 16226
L18331 16226
L18403 16250
L18450 16297
L18474 16345
L18498 16440
L18498 16511
L18474 16607
L18450 16654
L18403 16702
L18331 16726
L18212 16726
" />
<path d="M18927 16226
L18831 16226
L18784 16250
L18760 16273
L18712 16345
L18689 16440
L18689 16630
L18712 16678
L18736 16702
L18784 16726
L18879 16726
L18927 16702
L18950 16678
L18974 16630
L18974 16511
L18950 16464
L18927 16440
L18879 16416
L18784 16416
L18736 16440
L18712 16464
L18689 16511
" />
</g></g>
<g style="fill:#A90000; fill-opacity:0.0; 
stroke:#A90000; stroke-width:60.000000; stroke-opacity:1; 
stroke-linecap:round; stroke-linejoin:round;">
<text x="21000.000000" y="16400.000000"
textLength="1012.362205" font-size="666.653543" lengthAdjust="spacingAndGlyphs"
text-anchor="middle" opacity="0">10</text>
<g class="stroked-text"><desc>10</desc>
<path d="M20904 16376
L20619 16376
" />
<path d="M20761 16376
L20761 15876
L20714 15947
L20666 15995
L20619 16019
" />
<path d="M21214 15876
L21261 15876
L21309 15900
L21333 15923
L21357 15971
L21380 16066
L21380 16185
L21357 16280
L21333 16328
L21309 16352
L21261 16376
L21214 16376
L21166 16352
L21142 16328
L21119 16280
L21095 16185
L21095 16066
L21119 15971
L21142 15923
L21166 15900
L21214 15876
" />
</g></g>
<g style="fill:#840000; fill-opacity:0.0; 
stroke:#840000; stroke-width:60.000000; stroke-opacity:1; 
stroke-linecap:round; stroke-linejoin:round;">
<path d="M19500 15500
L22500 15500
" />
</g>
<g style="fill:#006464; fill-opacity:0.0; 
stroke:#006464; stroke-width:60.000000; stroke-opacity:1; 
stroke-linecap:round; stroke-linejoin:round;">
<text x="19100.000000" y="15750.000000"
textLength="4274.291339" font-size="666.653543" lengthAdjust="spacingAndGlyphs"
text-anchor="end" opacity="0">GPIO13/D7</text>
<g class="stroked-text"><desc>GPIO13/D7</desc>
<path d="M15236 15250
L15189 15226
L15117 15226
L15046 15250
L14998 15297
L14974 15345
L14950 15440
L14950 15511
L14974 15607
L14998 15654
L15046 15702
L15117 15726
L15165 15726
L15236 15702
L15260 15678
L15260 15511
L15165 15511
" />
<path d="M15474 15726
L15474 15226
L15665 15226
L15712 15250
L15736 15273
L15760 15321
L15760 15392
L15736 15440
L15712 15464
L15665 15488
L15474 15488
" />
<path d="M15974 15726
L15974 15226
" />
<path d="M16308 15226
L16403 15226
L16450 15250
L16498 15297
L16522 15392
L16522 15559
L16498 15654
L16450 15702
L16403 15726
L16308 15726
L16260 15702
L16212 15654
L16189 15559
L16189 15392
L16212 15297
L16260 15250
L16308 15226
" />
<path d="M16998 15726
L16712 15726
" />
<path d="M16855 15726
L16855 15226
L16808 15297
L16760 15345
L16712 15369
" />
<path d="M17165 15226
L17474 15226
L17308 15416
L17379 15416
L17427 15440
L17450 15464
L17474 15511
L17474 15630
L17450 15678
L17427 15702
L17379 15726
L17236 15726
L17189 15702
L17165 15678
" />
<path d="M18046 15202
L17617 15845
" />
<path d="M18212 15726
L18212 15226
L18331 15226
L18403 15250
L18450 15297
L18474 15345
L18498 15440
L18498 15511
L18474 15607
L18450 15654
L18403 15702
L18331 15726
L18212 15726
" />
<path d="M18665 15226
L18998 15226
L18784 15726
" />
</g></g>
<g style="fill:#A90000; fill-opacity:0.0; 
stroke:#A90000; stroke-width:60.000000; stroke-opacity:1; 
stroke-linecap:round; stroke-linejoin:round;">
<text x="21000.000000" y="15400.000000"
textLength="1012.362205" font-size="666.653543" lengthAdjust="spacingAndGlyphs"
text-anchor="middle" opacity="0">11</text>
<g class="stroked-text"><desc>11</desc>
<path d="M20904 15376
L20619 15376
" />
<path d="M20761 15376
L20761 14876
L20714 14947
L20666 14995
L20619 15019
" />
<path d="M21380 15376
L21095 15376
" />
<path d="M21238 15376
L21238 14876
L21190 14947
L21142 14995
L21095 15019
" />
</g></g>
<g style="fill:#840000; fill-opacity:0.0; 
stroke:#840000; stroke-width:60.000000; stroke-opacity:1; 
stroke-linecap:round; stroke-linejoin:round;">
<path d="M19500 14500
L22500 14500
" />
</g>
<g style="fill:#006464; fill-opacity:0.0; 
stroke:#006464; stroke-width:60.000000; stroke-opacity:1; 
stroke-linecap:round; stroke-linejoin:round;">
<text x="19100.000000" y="14750.000000"
textLength="4274.291339" font-size="666.653543" lengthAdjust="spacingAndGlyphs"
text-anchor="end" opacity="0">GPIO15/D8</text>
<g class="stroked-text"><desc>GPIO15/D8</desc>
<path d="M15236 14250
L15189 14226
L15117 14226
L15046 14250
L14998 14297
L14974 14345
L14950 14440
L14950 14511
L14974 14607
L14998 14654
L15046 14702
L15117 14726
L15165 14726
L15236 14702
L15260 14678
L15260 14511
L15165 14511
" />
<path d="M15474 14726
L15474 14226
L15665 14226
L15712 14250
L15736 14273
L15760 14321
L15760 14392
L15736 14440
L15712 14464
L15665 14488
L15474 14488
" />
<path d="M15974 14726
L15974 14226
" />
<path d="M16308 14226
L16403 14226
L16450 14250
L16498 14297
L16522 14392
L16522 14559
L16498 14654
L16450 14702
L16403 14726
L16308 14726
L16260 14702
L16212 14654
L16189 14559
L16189 14392
L16212 14297
L16260 14250
L16308 14226
" />
<path d="M16998 14726
L16712 14726
" />
<path d="M16855 14726
L16855 14226
L16808 14297
L16760 14345
L16712 14369
" />
<path d="M17450 14226
L17212 14226
L17189 14464
L17212 14440
L17260 14416
L17379 14416
L17427 14440
L17450 14464
L17474 14511
L17474 14630
L17450 14678
L17427 14702
L17379 14726
L17260 14726
L17212 14702
L17189 14678
" />
<path d="M18046 14202
L17617 14845
" />
<path d="M18212 14726
L18212 14226
L18331 14226
L18403 14250
L18450 14297
L18474 14345
L18498 14440
L18498 14511
L18474 14607
L18450 14654
L18403 14702
L18331 14726
L18212 14726
" />
<path d="M18784 14440
L18736 14416
L18712 14392
L18689 14345
L18689 14321
L18712 14273
L18736 14250
L18784 14226
L18879 14226
L18927 14250
L18950 14273
L18974 14321
L18974 14345
L18950 14392
L18927 14416
L18879 14440
L18784 14440
L18736 14464
L18712 14488
L18689 14535
L18689 14630
L18712 14678
L18736 14702
L18784 14726
L18879 14726
L18927 14702
L18950 14678
L18974 14630
L18974 14535
L18950 14488
L18927 14464
L18879 14440
" />
</g></g>
<g style="fill:#A90000; fill-opacity:0.0; 
stroke:#A90000; stroke-width:60.000000; stroke-opacity:1; 
stroke-linecap:round; stroke-linejoin:round;">
<text x="21000.000000" y="14400.000000"
textLength="1012.362205" font-size="666.653543" lengthAdjust="spacingAndGlyphs"
text-anchor="middle" opacity="0">12</text>
<g class="stroked-text"><desc>12</desc>
<path d="M20904 14376
L20619 14376
" />
<path d="M20761 14376
L20761 13876
L20714 13947
L20666 13995
L20619 14019
" />
<path d="M21095 13923
L21119 13900
L21166 13876
L21285 13876
L21333 13900
L21357 13923
L21380 13971
L21380 14019
L21357 14090
L21071 14376
L21380 14376
" />
</g></g>
<g style="fill:#840000; fill-opacity:0.0; 
stroke:#840000; stroke-width:60.000000; stroke-opacity:1; 
stroke-linecap:round; stroke-linejoin:round;">
<path d="M19500 13500
L22500 13500
" />
</g>
<g style="fill:#006464; fill-opacity:0.0; 
stroke:#006464; stroke-width:60.000000; stroke-opacity:1; 
stroke-linecap:round; stroke-linejoin:round;">
<text x="19100.000000" y="13750.000000"
textLength="3798.110236" font-size="666.653543" lengthAdjust="spacingAndGlyphs"
text-anchor="end" opacity="0">GPIO2/D4</text>
<g class="stroked-text"><desc>GPIO2/D4</desc>
<path d="M15712 13250
L15665 13226
L15593 13226
L15522 13250
L15474 13297
L15450 13345
L15427 13440
L15427 13511
L15450 13607
L15474 13654
L15522 13702
L15593 13726
L15641 13726
L15712 13702
L15736 13678
L15736 13511
L15641 13511
" />
<path d="M15950 13726
L15950 13226
L16141 13226
L16189 13250
L16212 13273
L16236 13321
L16236 13392
L16212 13440
L16189 13464
L16141 13488
L15950 13488
" />
<path d="M16450 13726
L16450 13226
" />
<path d="M16784 13226
L16879 13226
L16927 13250
L16974 13297
L16998 13392
L16998 13559
L16974 13654
L16927 13702
L16879 13726
L16784 13726
L16736 13702
L16689 13654
L16665 13559
L16665 13392
L16689 13297
L16736 13250
L16784 13226
" />
<path d="M17189 13273
L17212 13250
L17260 13226
L17379 13226
L17427 13250
L17450 13273
L17474 13321
L17474 13369
L17450 13440
L17165 13726
L17474 13726
" />
<path d="M18046 13202
L17617 13845
" />
<path d="M18212 13726
L18212 13226
L18331 13226
L18403 13250
L18450 13297
L18474 13345
L18498 13440
L18498 13511
L18474 13607
L18450 13654
L18403 13702
L18331 13726
L18212 13726
" />
<path d="M18927 13392
L18927 13726
" />
<path d="M18808 13202
L18689 13559
L18998 13559
" />
</g></g>
<g style="fill:#A90000; fill-opacity:0.0; 
stroke:#A90000; stroke-width:60.000000; stroke-opacity:1; 
stroke-linecap:round; stroke-linejoin:round;">
<text x="21000.000000" y="13400.000000"
textLength="1012.362205" font-size="666.653543" lengthAdjust="spacingAndGlyphs"
text-anchor="middle" opacity="0">13</text>
<g class="stroked-text"><desc>13</desc>
<path d="M20904 13376
L20619 13376
" />
<path d="M20761 13376
L20761 12876
L20714 12947
L20666 12995
L20619 13019
" />
<path d="M21071 12876
L21380 12876
L21214 13066
L21285 13066
L21333 13090
L21357 13114
L21380 13161
L21380 13280
L21357 13328
L21333 13352
L21285 13376
L21142 13376
L21095 13352
L21071 13328
" />
</g></g>
<g style="fill:#840000; fill-opacity:0.0; 
stroke:#840000; stroke-width:60.000000; stroke-opacity:1; 
stroke-linecap:round; stroke-linejoin:round;">
<path d="M19500 12500
L22500 12500
" />
</g>
<g style="fill:#006464; fill-opacity:0.0; 
stroke:#006464; stroke-width:60.000000; stroke-opacity:1; 
stroke-linecap:round; stroke-linejoin:round;">
<text x="19100.000000" y="12750.000000"
textLength="3798.110236" font-size="666.653543" lengthAdjust="spacingAndGlyphs"
text-anchor="end" opacity="0">GPIO0/D3</text>
<g class="stroked-text"><desc>GPIO0/D3</desc>
<path d="M15712 12250
L15665 12226
L15593 12226
L15522 12250
L15474 12297
L15450 12345
L15427 12440
L15427 12511
L15450 12607
L15474 12654
L15522 12702
L15593 12726
L15641 12726
L15712 12702
L15736 12678
L15736 12511
L15641 12511
" />
<path d="M15950 12726
L15950 12226
L16141 12226
L16189 12250
L16212 12273
L16236 12321
L16236 12392
L16212 12440
L16189 12464
L16141 12488
L15950 12488
" />
<path d="M16450 12726
L16450 12226
" />
<path d="M16784 12226
L16879 12226
L16927 12250
L16974 12297
L16998 12392
L16998 12559
L16974 12654
L16927 12702
L16879 12726
L16784 12726
L16736 12702
L16689 12654
L16665 12559
L16665 12392
L16689 12297
L16736 12250
L16784 12226
" />
<path d="M17308 12226
L17355 12226
L17403 12250
L17427 12273
L17450 12321
L17474 12416
L17474 12535
L17450 12630
L17427 12678
L17403 12702
L17355 12726
L17308 12726
L17260 12702
L17236 12678
L17212 12630
L17189 12535
L17189 12416
L17212 12321
L17236 12273
L17260 12250
L17308 12226
" />
<path d="M18046 12202
L17617 12845
" />
<path d="M18212 12726
L18212 12226
L18331 12226
L18403 12250
L18450 12297
L18474 12345
L18498 12440
L18498 12511
L18474 12607
L18450 12654
L18403 12702
L18331 12726
L18212 12726
" />
<path d="M18665 12226
L18974 12226
L18808 12416
L18879 12416
L18927 12440
L18950 12464
L18974 12511
L18974 12630
L18950 12678
L18927 12702
L18879 12726
L18736 12726
L18689 12702
L18665 12678
" />
</g></g>
<g style="fill:#A90000; fill-opacity:0.0; 
stroke:#A90000; stroke-width:60.000000; stroke-opacity:1; 
stroke-linecap:round; stroke-linejoin:round;">
<text x="21000.000000" y="12400.000000"
textLength="1012.362205" font-size="666.653543" lengthAdjust="spacingAndGlyphs"
text-anchor="middle" opacity="0">14</text>
<g class="stroked-text"><desc>14</desc>
<path d="M20904 12376
L20619 12376
" />
<path d="M20761 12376
L20761 11876
L20714 11947
L20666 11995
L20619 12019
" />
<path d="M21333 12042
L21333 12376
" />
<path d="M21214 11852
L21095 12209
L21404 12209
" />
</g></g>
<g style="fill:#840000; fill-opacity:0.0; 
stroke:#840000; stroke-width:60.000000; stroke-opacity:1; 
stroke-linecap:round; stroke-linejoin:round;">
<path d="M7500 12500
L4500 12500
" />
<path d="M4350 12350
L4650 12650
" />
<path d="M4650 12350
L4350 12650
" />
</g>
<g style="fill:#006464; fill-opacity:0.0; 
stroke:#006464; stroke-width:60.000000; stroke-opacity:1; 
stroke-linecap:round; stroke-linejoin:round;">
<text x="7900.000000" y="12750.000000"
textLength="1083.818898" font-size="666.653543" lengthAdjust="spacingAndGlyphs"
text-anchor="start" opacity="0">NC</text>
<g class="stroked-text"><desc>NC</desc>
<path d="M8049 12726
L8049 12226
L8334 12726
L8334 12226
" />
<path d="M8858 12678
L8834 12702
L8763 12726
L8715 12726
L8644 12702
L8596 12654
L8572 12607
L8549 12511
L8549 12440
L8572 12345
L8596 12297
L8644 12250
L8715 12226
L8763 12226
L8834 12250
L8858 12273
" />
</g></g>
<g style="fill:#A90000; fill-opacity:0.0; 
stroke:#A90000; stroke-width:60.000000; stroke-opacity:1; 
stroke-linecap:round; stroke-linejoin:round;">
<text x="6000.000000" y="12400.000000"
textLength="536.181102" font-size="666.653543" lengthAdjust="spacingAndGlyphs"
text-anchor="middle" opacity="0">2</text>
<g class="stroked-text"><desc>2</desc>
<path d="M5857 11923
L5880 11900
L5928 11876
L6047 11876
L6095 11900
L6119 11923
L6142 11971
L6142 12019
L6119 12090
L5833 12376
L6142 12376
" />
</g></g>
<g style="fill:#840000; fill-opacity:0.0; 
stroke:#840000; stroke-width:60.000000; stroke-opacity:1; 
stroke-linecap:round; stroke-linejoin:round;">
<path d="M7500 13500
L4500 13500
" />
</g>
<g style="fill:#006464; fill-opacity:0.0; 
stroke:#006464; stroke-width:60.000000; stroke-opacity:1; 
stroke-linecap:round; stroke-linejoin:round;">
<text x="7900.000000" y="13750.000000"
textLength="1417.125984" font-size="666.653543" lengthAdjust="spacingAndGlyphs"
text-anchor="start" opacity="0">TXD</text>
<g class="stroked-text"><desc>TXD</desc>
<path d="M7977 13226
L8263 13226
" />
<path d="M8120 13726
L8120 13226
" />
<path d="M8382 13226
L8715 13726
" />
<path d="M8715 13226
L8382 13726
" />
<path d="M8906 13726
L8906 13226
L9025 13226
L9096 13250
L9144 13297
L9168 13345
L9191 13440
L9191 13511
L9168 13607
L9144 13654
L9096 13702
L9025 13726
L8906 13726
" />
</g></g>
<g style="fill:#A90000; fill-opacity:0.0; 
stroke:#A90000; stroke-width:60.000000; stroke-opacity:1; 
stroke-linecap:round; stroke-linejoin:round;">
<text x="6000.000000" y="13400.000000"
textLength="536.181102" font-size="666.653543" lengthAdjust="spacingAndGlyphs"
text-anchor="middle" opacity="0">3</text>
<g class="stroked-text"><desc>3</desc>
<path d="M5833 12876
L6142 12876
L5976 13066
L6047 13066
L6095 13090
L6119 13114
L6142 13161
L6142 13280
L6119 13328
L6095 13352
L6047 13376
L5904 13376
L5857 13352
L5833 13328
" />
</g></g>
<g style="fill:#840000; fill-opacity:0.0; 
stroke:#840000; stroke-width:60.000000; stroke-opacity:1; 
stroke-linecap:round; stroke-linejoin:round;">
<path d="M7500 14500
L4500 14500
" />
</g>
<g style="fill:#006464; fill-opacity:0.0; 
stroke:#006464; stroke-width:60.000000; stroke-opacity:1; 
stroke-linecap:round; stroke-linejoin:round;">
<text x="7900.000000" y="14750.000000"
textLength="1536.181102" font-size="666.653543" lengthAdjust="spacingAndGlyphs"
text-anchor="start" opacity="0">RXD</text>
<g class="stroked-text"><desc>RXD</desc>
<path d="M8334 14726
L8168 14488
" />
<path d="M8049 14726
L8049 14226
L8239 14226
L8287 14250
L8310 14273
L8334 14321
L8334 14392
L8310 14440
L8287 14464
L8239 14488
L8049 14488
" />
<path d="M8501 14226
L8834 14726
" />
<path d="M8834 14226
L8501 14726
" />
<path d="M9025 14726
L9025 14226
L9144 14226
L9215 14250
L9263 14297
L9287 14345
L9310 14440
L9310 14511
L9287 14607
L9263 14654
L9215 14702
L9144 14726
L9025 14726
" />
</g></g>
<g style="fill:#A90000; fill-opacity:0.0; 
stroke:#A90000; stroke-width:60.000000; stroke-opacity:1; 
stroke-linecap:round; stroke-linejoin:round;">
<text x="6000.000000" y="14400.000000"
textLength="536.181102" font-size="666.653543" lengthAdjust="spacingAndGlyphs"
text-anchor="middle" opacity="0">4</text>
<g class="stroked-text"><desc>4</desc>
<path d="M6095 14042
L6095 14376
" />
<path d="M5976 13852
L5857 14209
L6166 14209
" />
</g></g>
<g style="fill:#840000; fill-opacity:0.0; 
stroke:#840000; stroke-width:60.000000; stroke-opacity:1; 
stroke-linecap:round; stroke-linejoin:round;">
<path d="M7500 15500
L4500 15500
" />
</g>
<g style="fill:#006464; fill-opacity:0.0; 
stroke:#006464; stroke-width:60.000000; stroke-opacity:1; 
stroke-linecap:round; stroke-linejoin:round;">
<text x="7900.000000" y="15750.000000"
textLength="4274.291339" font-size="666.653543" lengthAdjust="spacingAndGlyphs"
text-anchor="start" opacity="0">GPIO16/D0</text>
<g class="stroked-text"><desc>GPIO16/D0</desc>
<path d="M8310 15250
L8263 15226
L8191 15226
L8120 15250
L8072 15297
L8049 15345
L8025 15440
L8025 15511
L8049 15607
L8072 15654
L8120 15702
L8191 15726
L8239 15726
L8310 15702
L8334 15678
L8334 15511
L8239 15511
" />
<path d="M8549 15726
L8549 15226
L8739 15226
L8787 15250
L8810 15273
L8834 15321
L8834 15392
L8810 15440
L8787 15464
L8739 15488
L8549 15488
" />
<path d="M9049 15726
L9049 15226
" />
<path d="M9382 15226
L9477 15226
L9525 15250
L9572 15297
L9596 15392
L9596 15559
L9572 15654
L9525 15702
L9477 15726
L9382 15726
L9334 15702
L9287 15654
L9263 15559
L9263 15392
L9287 15297
L9334 15250
L9382 15226
" />
<path d="M10072 15726
L9787 15726
" />
<path d="M9930 15726
L9930 15226
L9882 15297
L9834 15345
L9787 15369
" />
<path d="M10501 15226
L10406 15226
L10358 15250
L10334 15273
L10287 15345
L10263 15440
L10263 15630
L10287 15678
L10310 15702
L10358 15726
L10453 15726
L10501 15702
L10525 15678
L10549 15630
L10549 15511
L10525 15464
L10501 15440
L10453 15416
L10358 15416
L10310 15440
L10287 15464
L10263 15511
" />
<path d="M11120 15202
L10691 15845
" />
<path d="M11287 15726
L11287 15226
L11406 15226
L11477 15250
L11525 15297
L11549 15345
L11572 15440
L11572 15511
L11549 15607
L11525 15654
L11477 15702
L11406 15726
L11287 15726
" />
<path d="M11882 15226
L11930 15226
L11977 15250
L12001 15273
L12025 15321
L12049 15416
L12049 15535
L12025 15630
L12001 15678
L11977 15702
L11930 15726
L11882 15726
L11834 15702
L11810 15678
L11787 15630
L11763 15535
L11763 15416
L11787 15321
L11810 15273
L11834 15250
L11882 15226
" />
</g></g>
<g style="fill:#A90000; fill-opacity:0.0; 
stroke:#A90000; stroke-width:60.000000; stroke-opacity:1; 
stroke-linecap:round; stroke-linejoin:round;">
<text x="6000.000000" y="15400.000000"
textLength="536.181102" font-size="666.653543" lengthAdjust="spacingAndGlyphs"
text-anchor="middle" opacity="0">5</text>
<g class="stroked-text"><desc>5</desc>
<path d="M6119 14876
L5880 14876
L5857 15114
L5880 15090
L5928 15066
L6047 15066
L6095 15090
L6119 15114
L6142 15161
L6142 15280
L6119 15328
L6095 15352
L6047 15376
L5928 15376
L5880 15352
L5857 15328
" />
</g></g>
<g style="fill:#840000; fill-opacity:0.0; 
stroke:#840000; stroke-width:60.000000; stroke-opacity:1; 
stroke-linecap:round; stroke-linejoin:round;">
<path d="M7500 16500
L4500 16500
" />
</g>
<g style="fill:#006464; fill-opacity:0.0; 
stroke:#006464; stroke-width:60.000000; stroke-opacity:1; 
stroke-linecap:round; stroke-linejoin:round;">
<text x="7900.000000" y="16750.000000"
textLength="2464.763780" font-size="666.653543" lengthAdjust="spacingAndGlyphs"
text-anchor="start" opacity="0">CH_PD</text>
<g class="stroked-text"><desc>CH_PD</desc>
<path d="M8334 16678
L8310 16702
L8239 16726
L8191 16726
L8120 16702
L8072 16654
L8049 16607
L8025 16511
L8025 16440
L8049 16345
L8072 16297
L8120 16250
L8191 16226
L8239 16226
L8310 16250
L8334 16273
" />
<path d="M8549 16726
L8549 16226
" />
<path d="M8549 16464
L8834 16464
" />
<path d="M8834 16726
L8834 16226
" />
<path d="M8953 16773
L9334 16773
" />
<path d="M9453 16726
L9453 16226
L9644 16226
L9691 16250
L9715 16273
L9739 16321
L9739 16392
L9715 16440
L9691 16464
L9644 16488
L9453 16488
" />
<path d="M9953 16726
L9953 16226
L10072 16226
L10144 16250
L10191 16297
L10215 16345
L10239 16440
L10239 16511
L10215 16607
L10191 16654
L10144 16702
L10072 16726
L9953 16726
" />
</g></g>
<g style="fill:#A90000; fill-opacity:0.0; 
stroke:#A90000; stroke-width:60.000000; stroke-opacity:1; 
stroke-linecap:round; stroke-linejoin:round;">
<text x="6000.000000" y="16400.000000"
textLength="536.181102" font-size="666.653543" lengthAdjust="spacingAndGlyphs"
text-anchor="middle" opacity="0">6</text>
<g class="stroked-text"><desc>6</desc>
<path d="M6095 15876
L6000 15876
L5952 15900
L5928 15923
L5880 15995
L5857 16090
L5857 16280
L5880 16328
L5904 16352
L5952 16376
L6047 16376
L6095 16352
L6119 16328
L6142 16280
L6142 16161
L6119 16114
L6095 16090
L6047 16066
L5952 16066
L5904 16090
L5880 16114
L5857 16161
" />
</g></g>
<g style="fill:#840000; fill-opacity:0.0; 
stroke:#840000; stroke-width:60.000000; stroke-opacity:1; 
stroke-linecap:round; stroke-linejoin:round;">
<path d="M7500 17500
L4500 17500
" />
</g>
<g style="fill:#006464; fill-opacity:0.0; 
stroke:#006464; stroke-width:60.000000; stroke-opacity:1; 
stroke-linecap:round; stroke-linejoin:round;">
<text x="7900.000000" y="17750.000000"
textLength="1393.346457" font-size="666.653543" lengthAdjust="spacingAndGlyphs"
text-anchor="start" opacity="0">ANT</text>
<g class="stroked-text"><desc>ANT</desc>
<path d="M8025 17583
L8263 17583
" />
<path d="M7977 17726
L8144 17226
L8310 17726
" />
<path d="M8477 17726
L8477 17226
L8763 17726
L8763 17226
" />
<path d="M8930 17226
L9215 17226
" />
<path d="M9072 17726
L9072 17226
" />
</g></g>
<g style="fill:#A90000; fill-opacity:0.0; 
stroke:#A90000; stroke-width:60.000000; stroke-opacity:1; 
stroke-linecap:round; stroke-linejoin:round;">
<text x="6000.000000" y="17400.000000"
textLength="536.181102" font-size="666.653543" lengthAdjust="spacingAndGlyphs"
text-anchor="middle" opacity="0">7</text>
<g class="stroked-text"><desc>7</desc>
<path d="M5833 16876
L6166 16876
L5952 17376
" />
</g></g>
<g style="fill:#840000; fill-opacity:0.0; 
stroke:#840000; stroke-width:60.000000; stroke-opacity:1; 
stroke-linecap:round; stroke-linejoin:round;">
<path d="M13500 9500
L13500 6500
" />
</g>
<g style="fill:#006464; fill-opacity:0.0; 
stroke:#006464; stroke-width:60.000000; stroke-opacity:1; 
stroke-linecap:round; stroke-linejoin:round;">
<g transform="rotate(-90.000000 13500.000000 9900.000000)">
<text x="13500.000000" y="10150.000000"
textLength="1488.582677" font-size="666.653543" lengthAdjust="spacingAndGlyphs"
text-anchor="end" opacity="0">VCC</text>
</g>
<g class="stroked-text"><desc>VCC</desc>
<path d="M13226 11310
L13726 11144
L13226 10977
" />
<path d="M13678 10525
L13702 10549
L13726 10620
L13726 10668
L13702 10739
L13654 10787
L13607 10810
L13511 10834
L13440 10834
L13345 10810
L13297 10787
L13250 10739
L13226 10668
L13226 10620
L13250 10549
L13273 10525
" />
<path d="M13678 10025
L13702 10049
L13726 10120
L13726 10168
L13702 10239
L13654 10287
L13607 10310
L13511 10334
L13440 10334
L13345 10310
L13297 10287
L13250 10239
L13226 10168
L13226 10120
L13250 10049
L13273 10025
" />
</g></g>
<g style="fill:#A90000; fill-opacity:0.0; 
stroke:#A90000; stroke-width:60.000000; stroke-opacity:1; 
stroke-linecap:round; stroke-linejoin:round;">
<g transform="rotate(-90.000000 13400.000000 8000.000000)">
<text x="13400.000000" y="8000.000000"
textLength="536.181102" font-size="666.653543" lengthAdjust="spacingAndGlyphs"
text-anchor="middle" opacity="0">8</text>
</g>
<g class="stroked-text"><desc>8</desc>
<path d="M13090 8047
L13066 8095
L13042 8119
L12995 8142
L12971 8142
L12923 8119
L12900 8095
L12876 8047
L12876 7952
L12900 7904
L12923 7880
L12971 7857
L12995 7857
L13042 7880
L13066 7904
L13090 7952
L13090 8047
L13114 8095
L13138 8119
L13185 8142
L13280 8142
L13328 8119
L13352 8095
L13376 8047
L13376 7952
L13352 7904
L13328 7880
L13280 7857
L13185 7857
L13138 7880
L13114 7904
L13090 7952
" />
</g></g>
<g style="fill:#840000; fill-opacity:0.0; 
stroke:#840000; stroke-width:60.000000; stroke-opacity:1; 
stroke-linecap:round; stroke-linejoin:round;">
<path d="M19500 17500
L22500 17500
" />
</g>
<g style="fill:#006464; fill-opacity:0.0; 
stroke:#006464; stroke-width:60.000000; stroke-opacity:1; 
stroke-linecap:round; stroke-linejoin:round;">
<text x="19100.000000" y="17750.000000"
textLength="4274.291339" font-size="666.653543" lengthAdjust="spacingAndGlyphs"
text-anchor="end" opacity="0">GPIO14/D5</text>
<g class="stroked-text"><desc>GPIO14/D5</desc>
<path d="M15236 17250
L15189 17226
L15117 17226
L15046 17250
L14998 17297
L14974 17345
L14950 17440
L14950 17511
L14974 17607
L14998 17654
L15046 17702
L15117 17726
L15165 17726
L15236 17702
L15260 17678
L15260 17511
L15165 17511
" />
<path d="M15474 17726
L15474 17226
L15665 17226
L15712 17250
L15736 17273
L15760 17321
L15760 17392
L15736 17440
L15712 17464
L15665 17488
L15474 17488
" />
<path d="M15974 17726
L15974 17226
" />
<path d="M16308 17226
L16403 17226
L16450 17250
L16498 17297
L16522 17392
L16522 17559
L16498 17654
L16450 17702
L16403 17726
L16308 17726
L16260 17702
L16212 17654
L16189 17559
L16189 17392
L16212 17297
L16260 17250
L16308 17226
" />
<path d="M16998 17726
L16712 17726
" />
<path d="M16855 17726
L16855 17226
L16808 17297
L16760 17345
L16712 17369
" />
<path d="M17427 17392
L17427 17726
" />
<path d="M17308 17202
L17189 17559
L17498 17559
" />
<path d="M18046 17202
L17617 17845
" />
<path d="M18212 17726
L18212 17226
L18331 17226
L18403 17250
L18450 17297
L18474 17345
L18498 17440
L18498 17511
L18474 17607
L18450 17654
L18403 17702
L18331 17726
L18212 17726
" />
<path d="M18950 17226
L18712 17226
L18689 17464
L18712 17440
L18760 17416
L18879 17416
L18927 17440
L18950 17464
L18974 17511
L18974 17630
L18950 17678
L18927 17702
L18879 17726
L18760 17726
L18712 17702
L18689 17678
" />
</g></g>
<g style="fill:#A90000; fill-opacity:0.0; 
stroke:#A90000; stroke-width:60.000000; stroke-opacity:1; 
stroke-linecap:round; stroke-linejoin:round;">
<text x="21000.000000" y="17400.000000"
textLength="536.181102" font-size="666.653543" lengthAdjust="spacingAndGlyphs"
text-anchor="middle" opacity="0">9</text>
<g class="stroked-text"><desc>9</desc>
<path d="M20904 17376
L21000 17376
L21047 17352
L21071 17328
L21119 17257
L21142 17161
L21142 16971
L21119 16923
L21095 16900
L21047 16876
L20952 16876
L20904 16900
L20880 16923
L20857 16971
L20857 17090
L20880 17138
L20904 17161
L20952 17185
L21047 17185
L21095 17161
L21119 17138
L21142 17090
" />
</g></g>
<g style="fill:#006464; fill-opacity:0.0; 
stroke:#006464; stroke-width:60.000000; stroke-opacity:1; 
stroke-linecap:round; stroke-linejoin:round;">
<text x="14802.480315" y="7749.960630"
textLength="1012.362205" font-size="666.653543" lengthAdjust="spacingAndGlyphs"
text-anchor="middle" opacity="0">U?</text>
<g class="stroked-text"><desc>U?</desc>
<path d="M14445 7226
L14445 7630
L14469 7678
L14492 7702
L14540 7726
L14635 7726
L14683 7702
L14707 7678
L14731 7630
L14731 7226
" />
<path d="M15040 7678
L15064 7702
L15040 7726
L15016 7702
L15040 7678
L15040 7726
" />
<path d="M14945 7249
L14992 7226
L15111 7226
L15159 7249
L15183 7297
L15183 7345
L15159 7392
L15135 7416
L15088 7440
L15064 7464
L15040 7511
L15040 7535
" />
</g><text x="16659.606299" y="8749.960630"
textLength="4726.653543" font-size="666.653543" lengthAdjust="spacingAndGlyphs"
text-anchor="middle" opacity="0">ESP-Module</text>
<g class="stroked-text"><desc>ESP-Module</desc>
<path d="M14445 8464
L14611 8464
" />
<path d="M14683 8726
L14445 8726
L14445 8226
L14683 8226
" />
<path d="M14873 8702
L14945 8726
L15064 8726
L15111 8702
L15135 8678
L15159 8630
L15159 8583
L15135 8535
L15111 8511
L15064 8488
L14969 8464
L14921 8440
L14897 8416
L14873 8368
L14873 8321
L14897 8273
L14921 8249
L14969 8226
L15088 8226
L15159 8249
" />
<path d="M15373 8726
L15373 8226
L15564 8226
L15611 8249
L15635 8273
L15659 8321
L15659 8392
L15635 8440
L15611 8464
L15564 8488
L15373 8488
" />
<path d="M15873 8535
L16254 8535
" />
<path d="M16492 8726
L16492 8226
L16659 8583
L16826 8226
L16826 8726
" />
<path d="M17135 8726
L17088 8702
L17064 8678
L17040 8630
L17040 8488
L17064 8440
L17088 8416
L17135 8392
L17207 8392
L17254 8416
L17278 8440
L17302 8488
L17302 8630
L17278 8678
L17254 8702
L17207 8726
L17135 8726
" />
<path d="M17731 8726
L17731 8226
" />
<path d="M17731 8702
L17683 8726
L17588 8726
L17540 8702
L17516 8678
L17492 8630
L17492 8488
L17516 8440
L17540 8416
L17588 8392
L17683 8392
L17731 8416
" />
<path d="M18183 8392
L18183 8726
" />
<path d="M17969 8392
L17969 8654
L17992 8702
L18040 8726
L18111 8726
L18159 8702
L18183 8678
" />
<path d="M18492 8726
L18445 8702
L18421 8654
L18421 8226
" />
<path d="M18873 8702
L18826 8726
L18731 8726
L18683 8702
L18659 8654
L18659 8464
L18683 8416
L18731 8392
L18826 8392
L18873 8416
L18897 8464
L18897 8511
L18659 8559
" />
</g></g>
</g>
<g style="fill:#006464; fill-opacity:0.0; 
stroke:#006464; stroke-width:60.000000; stroke-opacity:1; 
stroke-linecap:round; stroke-linejoin:round;">
<g >
</g>
<g style="fill:#840000; fill-opacity:0.0; 
stroke:#840000; stroke-width:60.000000; stroke-opacity:1; 
stroke-linecap:round; stroke-linejoin:round;">
<path style="fill:#840000; fill-opacity:0.0; 
stroke:#840000; stroke-width:60.000000; stroke-opacity:1; 
stroke-linecap:round; stroke-linejoin:round;fill:none"
d="M 13500.000000,27000.000000
13500.000000,27500.000000
14000.000000,27500.000000
13500.000000,28000.000000
13000.000000,27500.000000
13500.000000,27500.000000
" /> 
</g>
<g style="fill:#006464; fill-opacity:0.0; 
stroke:#006464; stroke-width:60.000000; stroke-opacity:1; 
stroke-linecap:round; stroke-linejoin:round;">
<text x="13500.000000" y="29249.960630"
textLength="1583.818898" font-size="666.653543" lengthAdjust="spacingAndGlyphs"
text-anchor="middle" opacity="0">GND</text>
<g class="stroked-text"><desc>GND</desc>
<path d="M13119 28749
L13071 28726
L13000 28726
L12928 28749
L12880 28797
L12857 28845
L12833 28940
L12833 29011
L12857 29107
L12880 29154
L12928 29202
L13000 29226
L13047 29226
L13119 29202
L13142 29178
L13142 29011
L13047 29011
" />
<path d="M13357 29226
L13357 28726
L13642 29226
L13642 28726
" />
<path d="M13880 29226
L13880 28726
L14000 28726
L14071 28749
L14119 28797
L14142 28845
L14166 28940
L14166 29011
L14142 29107
L14119 29154
L14071 29202
L14000 29226
L13880 29226
" />
</g></g>
</g>
<g style="fill:#006464; fill-opacity:0.0; 
stroke:#006464; stroke-width:60.000000; stroke-opacity:1; 
stroke-linecap:round; stroke-linejoin:round;">
<g >
</g>
<g style="fill:#840000; fill-opacity:0.0; 
stroke:#840000; stroke-width:60.000000; stroke-opacity:1; 
stroke-linecap:round; stroke-linejoin:round;">
</g>
<g style="fill:#840000; fill-opacity:0.0; 
stroke:#840000; stroke-width:100.000000; stroke-opacity:1; 
stroke-linecap:round; stroke-linejoin:round;">
<path style="fill:#840000; fill-opacity:0.0; 
stroke:#840000; stroke-width:100.000000; stroke-opacity:1; 
stroke-linecap:round; stroke-linejoin:round;fill:none"
d="M 33000.000000,23500.000000
32000.000000,23500.000000
" /> 
</g>
<g style="fill:#840000; fill-opacity:0.0; 
stroke:#840000; stroke-width:60.000000; stroke-opacity:1; 
stroke-linecap:round; stroke-linejoin:round;">
<path style="fill:#840000; fill-opacity:0.0; 
stroke:#840000; stroke-width:60.000000; stroke-opacity:1; 
stroke-linecap:round; stroke-linejoin:round;fill:none"
d="M 32500.000000,22500.000000
32500.000000,23500.000000
" /> 
<path style="fill:#840000; fill-opacity:0.0; 
stroke:#840000; stroke-width:60.000000; stroke-opacity:1; 
stroke-linecap:round; stroke-linejoin:round;fill:none"
d="M 33750.000000,22350.000000
33750.000000,22550.000000
" /> 
<path style="fill:#840000; fill-opacity:0.0; 
stroke:#840000; stroke-width:60.000000; stroke-opacity:1; 
stroke-linecap:round; stroke-linejoin:round;fill:none"
d="M 33150.000000,22950.000000
33750.000000,22350.000000
33550.000000,22350.000000
" /> 
</g>
<g style="fill:#840000; fill-opacity:0.0; 
stroke:#840000; stroke-width:100.000000; stroke-opacity:1; 
stroke-linecap:round; stroke-linejoin:round;">
<path style="fill:#840000; fill-opacity:0.0; 
stroke:#840000; stroke-width:100.000000; stroke-opacity:1; 
stroke-linecap:round; stroke-linejoin:round;fill:none"
d="M 33000.000000,22500.000000
32500.000000,23500.000000
32000.000000,22500.000000
Z" /> 
</g>
<g style="fill:#840000; fill-opacity:0.0; 
stroke:#840000; stroke-width:60.000000; stroke-opacity:1; 
stroke-linecap:round; stroke-linejoin:round;">
<path style="fill:#840000; fill-opacity:0.0; 
stroke:#840000; stroke-width:60.000000; stroke-opacity:1; 
stroke-linecap:round; stroke-linejoin:round;fill:none"
d="M 33150.000000,23450.000000
33750.000000,22850.000000
33550.000000,22850.000000
33750.000000,22850.000000
33750.000000,23050.000000
" /> 
<path d="M32500 23500
L32500 24500
" />
<path d="M32500 22500
L32500 21500
" />
</g>
<g style="fill:#006464; fill-opacity:0.0; 
stroke:#006464; stroke-width:60.000000; stroke-opacity:1; 
stroke-linecap:round; stroke-linejoin:round;">
<text x="34495.551181" y="22699.960630"
textLength="988.582677" font-size="666.653543" lengthAdjust="spacingAndGlyphs"
text-anchor="middle" opacity="0">D?</text>
<g class="stroked-text"><desc>D?</desc>
<path d="M34150 22676
L34150 22176
L34269 22176
L34340 22199
L34388 22247
L34412 22295
L34436 22390
L34436 22461
L34412 22557
L34388 22604
L34340 22652
L34269 22676
L34150 22676
" />
<path d="M34721 22628
L34745 22652
L34721 22676
L34697 22652
L34721 22628
L34721 22676
" />
<path d="M34626 22199
L34674 22176
L34793 22176
L34840 22199
L34864 22247
L34864 22295
L34840 22342
L34816 22366
L34769 22390
L34745 22414
L34721 22461
L34721 22485
" />
</g><text x="35269.330709" y="23699.960630"
textLength="2536.181102" font-size="666.653543" lengthAdjust="spacingAndGlyphs"
text-anchor="middle" opacity="0">IR LED</text>
<g class="stroked-text"><desc>IR LED</desc>
<path d="M34150 23676
L34150 23176
" />
<path d="M34674 23676
L34507 23438
" />
<path d="M34388 23676
L34388 23176
L34578 23176
L34626 23199
L34650 23223
L34674 23271
L34674 23342
L34650 23390
L34626 23414
L34578 23438
L34388 23438
" />
<path d="M35507 23676
L35269 23676
L35269 23176
" />
<path d="M35674 23414
L35840 23414
" />
<path d="M35912 23676
L35674 23676
L35674 23176
L35912 23176
" />
<path d="M36126 23676
L36126 23176
L36245 23176
L36316 23199
L36364 23247
L36388 23295
L36412 23390
L36412 23461
L36388 23557
L36364 23604
L36316 23652
L36245 23676
L36126 23676
" />
</g></g>
</g>
<g style="fill:#006464; fill-opacity:0.0; 
stroke:#006464; stroke-width:60.000000; stroke-opacity:1; 
stroke-linecap:round; stroke-linejoin:round;">
<g >
</g>
<g style="fill:#840000; fill-opacity:0.0; 
stroke:#840000; stroke-width:60.000000; stroke-opacity:1; 
stroke-linecap:round; stroke-linejoin:round;">
</g>
<g style="fill:#840000; fill-opacity:0.0; 
stroke:#840000; stroke-width:100.000000; stroke-opacity:1; 
stroke-linecap:round; stroke-linejoin:round;">
<rect x="32100.000000" y="18000.000000" width="800.000000" height="2000.000000" rx="0.000000" />
</g>
<g style="fill:#840000; fill-opacity:0.0; 
stroke:#840000; stroke-width:60.000000; stroke-opacity:1; 
stroke-linecap:round; stroke-linejoin:round;">
<path d="M32500 18000
L32500 17500
" />
<path d="M32500 20000
L32500 20500
" />
</g>
<g style="fill:#006464; fill-opacity:0.0; 
stroke:#006464; stroke-width:60.000000; stroke-opacity:1; 
stroke-linecap:round; stroke-linejoin:round;">
<text x="33995.551181" y="18749.921260"
textLength="988.582677" font-size="666.653543" lengthAdjust="spacingAndGlyphs"
text-anchor="middle" opacity="0">R?</text>
<g class="stroked-text"><desc>R?</desc>
<path d="M33936 18726
L33769 18487
" />
<path d="M33650 18726
L33650 18226
L33840 18226
L33888 18249
L33912 18273
L33936 18321
L33936 18392
L33912 18440
L33888 18464
L33840 18487
L33650 18487
" />
<path d="M34221 18678
L34245 18702
L34221 18726
L34197 18702
L34221 18678
L34221 18726
" />
<path d="M34126 18249
L34174 18226
L34293 18226
L34340 18249
L34364 18297
L34364 18345
L34340 18392
L34316 18416
L34269 18440
L34245 18464
L34221 18511
L34221 18535
" />
</g><text x="34257.440945" y="19749.921260"
textLength="1512.362205" font-size="666.653543" lengthAdjust="spacingAndGlyphs"
text-anchor="middle" opacity="0">1kΩ</text>
<g class="stroked-text"><desc>1kΩ</desc>
<path d="M33912 19726
L33626 19726
" />
<path d="M33769 19726
L33769 19226
L33721 19297
L33674 19345
L33626 19368
" />
<path d="M34126 19726
L34126 19226
" />
<path d="M34174 19535
L34316 19726
" />
<path d="M34316 19392
L34126 19583
" />
<path d="M34507 19726
L34626 19726
L34626 19630
L34578 19607
L34531 19559
L34507 19487
L34507 19368
L34531 19297
L34578 19249
L34650 19226
L34745 19226
L34816 19249
L34864 19297
L34888 19368
L34888 19487
L34864 19559
L34816 19607
L34769 19630
L34769 19726
L34888 19726
" />
</g></g>
</g>
<g style="fill:#006464; fill-opacity:0.0; 
stroke:#006464; stroke-width:60.000000; stroke-opacity:1; 
stroke-linecap:round; stroke-linejoin:round;">
<g >
</g>
<g style="fill:#840000; fill-opacity:0.0; 
stroke:#840000; stroke-width:60.000000; stroke-opacity:1; 
stroke-linecap:round; stroke-linejoin:round;">
<path style="fill:#840000; fill-opacity:0.0; 
stroke:#840000; stroke-width:60.000000; stroke-opacity:1; 
stroke-linecap:round; stroke-linejoin:round;fill:none"
d="M 31750.000000,13250.000000
32500.000000,12500.000000
" /> 
<path style="fill:#840000; fill-opacity:0.0; 
stroke:#840000; stroke-width:60.000000; stroke-opacity:1; 
stroke-linecap:round; stroke-linejoin:round;fill:none"
d="M 31750.000000,13750.000000
32500.000000,14500.000000
32500.000000,14500.000000
" /> 
</g>
<g style="fill:#840000; fill-opacity:0.0; 
stroke:#840000; stroke-width:200.000000; stroke-opacity:1; 
stroke-linecap:round; stroke-linejoin:round;">
<path style="fill:#840000; fill-opacity:0.0; 
stroke:#840000; stroke-width:200.000000; stroke-opacity:1; 
stroke-linecap:round; stroke-linejoin:round;fill:none"
d="M 31750.000000,12750.000000
31750.000000,14250.000000
31750.000000,14250.000000
" /> 
</g>
<g style="fill:#840000; fill-opacity:1.0; 
stroke:#840000; stroke-width:60.000000; stroke-opacity:1; 
stroke-linecap:round; stroke-linejoin:round;">
<path style="fill:#840000; fill-opacity:1.0; 
stroke:#840000; stroke-width:60.000000; stroke-opacity:1; 
stroke-linecap:round; stroke-linejoin:round;fill-rule:evenodd;"
d="M 32000.000000,14200.000000
32200.000000,14000.000000
32400.000000,14400.000000
32000.000000,14200.000000
Z" /> 
</g>
<g style="fill:#840000; fill-opacity:0.0; 
stroke:#840000; stroke-width:100.000000; stroke-opacity:1; 
stroke-linecap:round; stroke-linejoin:round;">
<circle cx="32000.000000" cy="13500.000000" r="1110.000000" /> 
</g>
<g style="fill:#840000; fill-opacity:0.0; 
stroke:#840000; stroke-width:60.000000; stroke-opacity:1; 
stroke-linecap:round; stroke-linejoin:round;">
<path d="M31750 13500
L29500 13500
" />
</g>
<g style="fill:#A90000; fill-opacity:0.0; 
stroke:#A90000; stroke-width:60.000000; stroke-opacity:1; 
stroke-linecap:round; stroke-linejoin:round;">
<text x="30625.000000" y="14100.000000"
textLength="536.181102" font-size="666.653543" lengthAdjust="spacingAndGlyphs"
text-anchor="middle" opacity="0">1</text>
<g class="stroked-text"><desc>1</desc>
<path d="M30767 14076
L30482 14076
" />
<path d="M30625 14076
L30625 13576
L30577 13647
L30529 13695
L30482 13719
" />
</g></g>
<g style="fill:#840000; fill-opacity:0.0; 
stroke:#840000; stroke-width:60.000000; stroke-opacity:1; 
stroke-linecap:round; stroke-linejoin:round;">
<path d="M32500 12500
L32500 11500
" />
</g>
<g style="fill:#A90000; fill-opacity:0.0; 
stroke:#A90000; stroke-width:60.000000; stroke-opacity:1; 
stroke-linecap:round; stroke-linejoin:round;">
<g transform="rotate(-90.000000 32600.000000 12000.000000)">
<text x="32600.000000" y="12500.000000"
textLength="536.181102" font-size="666.653543" lengthAdjust="spacingAndGlyphs"
text-anchor="middle" opacity="0">2</text>
</g>
<g class="stroked-text"><desc>2</desc>
<path d="M32623 12142
L32600 12119
L32576 12071
L32576 11952
L32600 11904
L32623 11880
L32671 11857
L32719 11857
L32790 11880
L33076 12166
L33076 11857
" />
</g></g>
<g style="fill:#840000; fill-opacity:0.0; 
stroke:#840000; stroke-width:60.000000; stroke-opacity:1; 
stroke-linecap:round; stroke-linejoin:round;">
<path d="M32500 14500
L32500 15500
" />
</g>
<g style="fill:#A90000; fill-opacity:0.0; 
stroke:#A90000; stroke-width:60.000000; stroke-opacity:1; 
stroke-linecap:round; stroke-linejoin:round;">
<g transform="rotate(-90.000000 32600.000000 15000.000000)">
<text x="32600.000000" y="15500.000000"
textLength="536.181102" font-size="666.653543" lengthAdjust="spacingAndGlyphs"
text-anchor="middle" opacity="0">3</text>
</g>
<g class="stroked-text"><desc>3</desc>
<path d="M32576 15166
L32576 14857
L32766 15023
L32766 14952
L32790 14904
L32814 14880
L32861 14857
L32980 14857
L33028 14880
L33052 14904
L33076 14952
L33076 15095
L33052 15142
L33028 15166
" />
</g></g>
<g style="fill:#006464; fill-opacity:0.0; 
stroke:#006464; stroke-width:60.000000; stroke-opacity:1; 
stroke-linecap:round; stroke-linejoin:round;">
<text x="34007.440945" y="13249.921260"
textLength="1012.362205" font-size="666.653543" lengthAdjust="spacingAndGlyphs"
text-anchor="middle" opacity="0">Q?</text>
<g class="stroked-text"><desc>Q?</desc>
<path d="M33983 13273
L33935 13249
L33888 13202
L33816 13130
L33769 13107
L33721 13107
" />
<path d="M33745 13226
L33697 13202
L33650 13154
L33626 13059
L33626 12892
L33650 12797
L33697 12749
L33745 12726
L33840 12726
L33888 12749
L33935 12797
L33959 12892
L33959 13059
L33935 13154
L33888 13202
L33840 13226
L33745 13226
" />
<path d="M34245 13178
L34269 13202
L34245 13226
L34221 13202
L34245 13178
L34245 13226
" />
<path d="M34150 12749
L34197 12726
L34316 12726
L34364 12749
L34388 12797
L34388 12845
L34364 12892
L34340 12916
L34293 12940
L34269 12964
L34245 13011
L34245 13035
" />
</g><text x="34209.803150" y="14249.960630"
textLength="1417.125984" font-size="666.653543" lengthAdjust="spacingAndGlyphs"
text-anchor="middle" opacity="0">npn</text>
<g class="stroked-text"><desc>npn</desc>
<path d="M33650 13892
L33650 14226
" />
<path d="M33650 13940
L33674 13916
L33721 13892
L33793 13892
L33840 13916
L33864 13964
L33864 14226
" />
<path d="M34102 13892
L34102 14392
" />
<path d="M34102 13916
L34150 13892
L34245 13892
L34293 13916
L34316 13940
L34340 13988
L34340 14130
L34316 14178
L34293 14202
L34245 14226
L34150 14226
L34102 14202
" />
<path d="M34555 13892
L34555 14226
" />
<path d="M34555 13940
L34578 13916
L34626 13892
L34697 13892
L34745 13916
L34769 13964
L34769 14226
" />
</g></g>
</g>
<g style="fill:#006464; fill-opacity:0.0; 
stroke:#006464; stroke-width:60.000000; stroke-opacity:1; 
stroke-linecap:round; stroke-linejoin:round;">
<g >
</g>
<g style="fill:#840000; fill-opacity:0.0; 
stroke:#840000; stroke-width:60.000000; stroke-opacity:1; 
stroke-linecap:round; stroke-linejoin:round;">
</g>
<g style="fill:#840000; fill-opacity:0.0; 
stroke:#840000; stroke-width:100.000000; stroke-opacity:1; 
stroke-linecap:round; stroke-linejoin:round;">
<rect x="25000.000000" y="13100.000000" width="2000.000000" height="800.000000" rx="0.000000" />
</g>
<g style="fill:#840000; fill-opacity:0.0; 
stroke:#840000; stroke-width:60.000000; stroke-opacity:1; 
stroke-linecap:round; stroke-linejoin:round;">
<path d="M25000 13500
L24500 13500
" />
<path d="M27000 13500
L27500 13500
" />
</g>
<g style="fill:#006464; fill-opacity:0.0; 
stroke:#006464; stroke-width:60.000000; stroke-opacity:1; 
stroke-linecap:round; stroke-linejoin:round;">
<text x="26000.000000" y="11250.000000"
textLength="988.582677" font-size="666.653543" lengthAdjust="spacingAndGlyphs"
text-anchor="middle" opacity="0">R?</text>
<g class="stroked-text"><desc>R?</desc>
<path d="M25940 11226
L25773 10988
" />
<path d="M25654 11226
L25654 10726
L25845 10726
L25892 10750
L25916 10773
L25940 10821
L25940 10892
L25916 10940
L25892 10964
L25845 10988
L25654 10988
" />
<path d="M26226 11178
L26250 11202
L26226 11226
L26202 11202
L26226 11178
L26226 11226
" />
<path d="M26130 10750
L26178 10726
L26297 10726
L26345 10750
L26369 10797
L26369 10845
L26345 10892
L26321 10916
L26273 10940
L26250 10964
L26226 11011
L26226 11035
" />
</g><text x="25999.960630" y="12250.000000"
textLength="3536.181102" font-size="666.653543" lengthAdjust="spacingAndGlyphs"
text-anchor="middle" opacity="0">30-45 Ω</text>
<g class="stroked-text"><desc>30-45 Ω</desc>
<path d="M24333 11726
L24642 11726
L24476 11916
L24547 11916
L24595 11940
L24618 11964
L24642 12011
L24642 12130
L24618 12178
L24595 12202
L24547 12226
L24404 12226
L24357 12202
L24333 12178
" />
<path d="M24952 11726
L24999 11726
L25047 11750
L25071 11773
L25095 11821
L25118 11916
L25118 12035
L25095 12130
L25071 12178
L25047 12202
L24999 12226
L24952 12226
L24904 12202
L24880 12178
L24857 12130
L24833 12035
L24833 11916
L24857 11821
L24880 11773
L24904 11750
L24952 11726
" />
<path d="M25333 12035
L25714 12035
" />
<path d="M26166 11892
L26166 12226
" />
<path d="M26047 11702
L25928 12059
L26238 12059
" />
<path d="M26666 11726
L26428 11726
L26404 11964
L26428 11940
L26476 11916
L26595 11916
L26642 11940
L26666 11964
L26690 12011
L26690 12130
L26666 12178
L26642 12202
L26595 12226
L26476 12226
L26428 12202
L26404 12178
" />
<path d="M27261 12226
L27380 12226
L27380 12130
L27333 12107
L27285 12059
L27261 11988
L27261 11869
L27285 11797
L27333 11750
L27404 11726
L27499 11726
L27571 11750
L27618 11797
L27642 11869
L27642 11988
L27618 12059
L27571 12107
L27523 12130
L27523 12226
L27642 12226
" />
</g></g>
</g>
<g style="fill:#006464; fill-opacity:0.0; 
stroke:#006464; stroke-width:60.000000; stroke-opacity:1; 
stroke-linecap:round; stroke-linejoin:round;">
</g>
<g style="fill:#009600; fill-opacity:0.0; 
stroke:#009600; stroke-width:60.000000; stroke-opacity:1; 
stroke-linecap:round; stroke-linejoin:round;">
<path d="M13500 4000
L13500 5000
" />
<path d="M13500 5000
L13500 6500
" />
<path d="M13500 23500
L13500 25500
" />
<path d="M13500 25500
L32500 25500
" />
<path d="M13500 25500
L13500 27000
" />
<path d="M32500 25500
L32500 24500
" />
<path d="M32500 20500
L32500 21500
" />
<path d="M32500 15500
L32500 17500
" />
<path d="M32500 5000
L32500 11500
" />
<path d="M32500 5000
L13500 5000
" />
<path d="M27500 13500
L29500 13500
" />
<path d="M22500 13500
L24500 13500
" />
</g>
<g style="fill:#009600; fill-opacity:1.0; 
stroke:#009600; stroke-width:60.000000; stroke-opacity:1; 
stroke-linecap:round; stroke-linejoin:round;">
<circle cx="13500.000000" cy="5000.000000" r="180.000000" /> 
<circle cx="13500.000000" cy="25500.000000" r="180.000000" /> 
</g> 
</svg>
